<?xml version="1.0" standalone="no"?>
<!DOCTYPE svg PUBLIC "-//W3C//DTD SVG 20010904//EN"
 "http://www.w3.org/TR/2001/REC-SVG-20010904/DTD/svg10.dtd">
<svg version="1.0" xmlns="http://www.w3.org/2000/svg"
 width="512.000000pt" height="512.000000pt" viewBox="0 0 512.000000 512.000000"
 preserveAspectRatio="xMidYMid meet">

<g transform="translate(0.000000,512.000000) scale(0.100000,-0.100000)"
fill="#000000" stroke="none">
<path d="M2468 4959 c-404 -31 -759 -191 -1087 -488 -262 -238 -446 -563 -507
-896 -22 -121 -29 -386 -15 -526 53 -500 282 -1057 685 -1669 262 -397 545
-747 865 -1072 l155 -158 24 23 c42 39 264 287 368 412 905 1084 1378 2096
1314 2809 -42 477 -263 896 -630 1198 -193 158 -473 293 -714 342 -69 15 -295
38 -336 34 -8 0 -63 -5 -122 -9z m242 -945 c175 -41 340 -172 419 -334 54
-110 75 -209 68 -321 -17 -280 -207 -512 -478 -585 -85 -22 -234 -22 -319 0
-330 88 -535 419 -465 751 48 231 244 434 470 489 80 19 224 19 305 0z"/>
</g>
</svg>
