<?xml version="1.0" standalone="no"?>
<!DOCTYPE svg PUBLIC "-//W3C//DTD SVG 20010904//EN"
 "http://www.w3.org/TR/2001/REC-SVG-20010904/DTD/svg10.dtd">
<svg version="1.0" xmlns="http://www.w3.org/2000/svg"
 width="512.000000pt" height="512.000000pt" viewBox="0 0 512.000000 512.000000"
 preserveAspectRatio="xMidYMid meet">

<g transform="translate(0.000000,512.000000) scale(0.100000,-0.100000)"
fill="#000000" stroke="none">
<path d="M765 4380 c-94 -20 -194 -70 -244 -124 -22 -24 -23 -27 -8 -48 9 -13
432 -482 939 -1043 667 -737 937 -1028 972 -1050 45 -27 57 -30 135 -30 125 0
138 9 354 248 738 813 1707 1889 1707 1896 0 25 -111 101 -195 133 l-60 23
-1780 1 c-979 1 -1798 -2 -1820 -6z"/>
<path d="M345 3092 c-8 -794 -2 -1773 11 -1919 4 -40 10 -73 14 -73 13 0 992
1680 987 1693 -3 6 -230 260 -505 564 l-500 551 -7 -816z"/>
<path d="M4270 3358 c-272 -302 -499 -554 -504 -561 -6 -10 141 -269 484 -855
271 -463 496 -842 500 -842 4 0 10 28 14 62 11 115 17 1595 9 2173 l-8 570
-495 -547z"/>
<path d="M1083 1673 l-502 -858 27 -17 c15 -10 56 -28 92 -40 l65 -23 1795 0
1795 0 65 23 c36 12 77 30 92 40 l27 18 -502 857 c-276 471 -505 857 -508 857
-3 0 -129 -136 -279 -302 -150 -167 -297 -321 -325 -344 -96 -74 -242 -124
-365 -124 -134 0 -293 60 -390 147 -28 25 -169 176 -312 335 -142 158 -262
288 -266 288 -4 0 -233 -386 -509 -857z"/>
</g>
</svg>
