<?xml version="1.0" standalone="no"?>
<!DOCTYPE svg PUBLIC "-//W3C//DTD SVG 20010904//EN"
 "http://www.w3.org/TR/2001/REC-SVG-20010904/DTD/svg10.dtd">
<svg version="1.0" xmlns="http://www.w3.org/2000/svg"
 width="512.000000pt" height="512.000000pt" viewBox="0 0 512.000000 512.000000"
 preserveAspectRatio="xMidYMid meet">

<g transform="translate(0.000000,512.000000) scale(0.100000,-0.100000)"
fill="#000000" stroke="none">
<path d="M932 5105 c-101 -15 -293 -64 -355 -90 -51 -21 -177 -142 -250 -240
-150 -202 -261 -508 -313 -865 -21 -147 -15 -241 31 -434 194 -829 641 -1604
1287 -2231 626 -609 1351 -1014 2146 -1201 191 -45 285 -51 432 -30 334 49
606 142 824 283 90 58 258 225 281 278 31 74 83 299 95 413 14 126 9 187 -20
248 -33 67 -81 106 -283 227 -882 526 -884 527 -967 527 -60 0 -136 -28 -184
-68 -25 -20 -140 -144 -256 -275 -116 -130 -223 -245 -238 -255 -16 -10 -46
-17 -78 -17 -45 0 -75 12 -237 93 -609 304 -1079 774 -1381 1381 -79 160 -91
191 -91 236 0 31 7 61 17 77 10 15 124 122 255 238 131 116 255 231 275 256
60 72 81 170 57 259 -15 55 -622 1074 -666 1119 -80 80 -188 100 -381 71z"/>
</g>
</svg>
